HIERARCHY
ROOT Hips
{
	OFFSET 0.000000 0.000000 0.000000 
	CHANNELS 6 Xposition Yposition Zposition Yrotation Zrotation Xrotation 
	JOINT Lumbar
	{
		OFFSET 0.000000 0.000000 0.000000 
		CHANNELS 3 Zrotation Xrotation Yrotation
		JOINT Neck
		{
			OFFSET 0.000000 0.445665 0.000000 
			CHANNELS 3 Zrotation Xrotation Yrotation
			End Site
			{
				OFFSET 0.000000 0.227535 0.000000 
			}
		}
		JOINT RightShoulder
		{
			OFFSET 0.019635 0.377685 0.194865 
			CHANNELS 3 Zrotation Xrotation Yrotation
			JOINT RightElbow
			{
				OFFSET 0.000000 -0.243375 0.000000 
				CHANNELS 2 Zrotation Yrotation
				JOINT RightWrist
				{
					OFFSET 0.000000 -0.264825 0.000000 
					CHANNELS 2 Zrotation Xrotation
					End Site
					{
						OFFSET 0.006600 -0.176220 0.000990 
					}
				}
			}
		}
		JOINT LeftShoulder
		{
			OFFSET 0.019635 0.377685 -0.194865 
			CHANNELS 3 Zrotation Xrotation Yrotation
			JOINT LeftElbow
			{
				OFFSET 0.000000 -0.243375 0.000000 
				CHANNELS 2 Zrotation Yrotation
				JOINT LeftWrist
				{
					OFFSET 0.000000 -0.264825 0.000000 
					CHANNELS 2 Zrotation Xrotation
					End Site
					{
						OFFSET 0.006600 -0.176220 -0.000990 
					}
				}
			}
		}
	}
	JOINT RightHip
	{
		OFFSET 0.052140 -0.069960 0.075570 
		CHANNELS 3 Zrotation Xrotation Yrotation
		JOINT RightKnee
		{
			OFFSET 0.000000 -0.402270 0.000000 
			CHANNELS 1 Zrotation
			JOINT RightAnkle
			{
				OFFSET 0.000000 -0.404085 0.000000 
				CHANNELS 3 Zrotation Xrotation Yrotation
				End Site
				{
					OFFSET 0.204105 -0.089430 0.008415 
				}
			}
		}
	}
	JOINT LeftHip
	{
		OFFSET 0.052140 -0.069960 -0.075570 
		CHANNELS 3 Zrotation Xrotation Yrotation
		JOINT LeftKnee
		{
			OFFSET 0.000000 -0.402270 0.000000 
			CHANNELS 1 Zrotation
			JOINT LeftAnkle
			{
				OFFSET 0.000000 -0.404085 0.000000 
				CHANNELS 3 Zrotation Xrotation Yrotation
				End Site
				{
					OFFSET 0.204105 -0.089430 -0.008415 
				}
			}
		}
	}
}
MOTION
Frames: 26
Frame Time: 0.02
-0.20057 -0.60657 0.40328 96.64324 -86.91851 -89.98996 -6.85227 7.37544 4.62071 38.10974 -9.63063 -0.83079 107.14827 5.61052 41.68462 115.67665 135.19983 -76.92218 -10.8718 115.40693 -1.08851 -39.85582 114.2108 -117.03919 -58.07895 6.93036 116.59866 -16.81046 27.06959 -148.91173 23.89202 35.80959 17.18864 109.98534 13.79135 -16.74536 -148.91173 23.89191 -35.80893 -17.18594
-0.20266 -0.60557 0.40433 96.41445 -86.92738 -89.99283 -6.88224 7.32134 4.61188 37.9863 -9.5748 -0.83079 107.65482 5.2503 42.53599 114.89039 132.10268 -73.56731 -10.18296 115.52086 -0.95518 -40.47212 113.81086 -116.57027 -57.50758 6.82359 116.19745 -16.78254 26.49527 -148.91173 23.89194 35.80948 17.18859 109.58751 13.62571 -16.09921 -148.91173 23.88957 -35.80255 -17.17206
-0.20404 -0.60506 0.40517 96.12809 -86.94538 -89.99311 -6.73805 7.19956 4.80486 38.03251 -9.49301 -0.83079 108.23395 4.65803 43.43992 113.7961 128.14547 -69.26653 -9.32151 115.51039 -1.09879 -40.79184 113.32564 -116.55519 -57.84506 6.85769 115.85631 -16.82281 25.98685 -148.91173 23.89179 35.80929 17.1885 109.18197 13.61265 -15.49816 -148.91172 23.88663 -35.79451 -17.15474
-0.20566 -0.60439 0.40609 95.86948 -86.96334 -89.9924 -6.66899 7.10695 4.89164 38.00759 -9.42326 -0.83079 108.76696 4.19162 44.29305 112.85612 124.67941 -65.51507 -8.56104 115.56297 -1.10554 -41.24304 112.86095 -116.311 -57.7265 6.82156 115.48497 -16.84891 25.44594 -148.91173 23.89168 35.80914 17.18844 108.76966 13.53184 -14.86575 -148.91172 23.88412 -35.78768 -17.13996
-0.20761 -0.60345 0.40709 95.6097 -86.96578 -89.99318 -6.61043 7.02136 5.0307 37.95423 -9.34868 -0.83079 109.34771 3.63539 45.2554 111.84865 120.76672 -61.22324 -7.69883 115.58847 -1.13425 -41.71977 112.46188 -116.11887 -57.70796 6.79964 115.12476 -16.80816 24.91668 -148.91173 23.89154 35.80896 17.18836 108.3955 13.4415 -14.2733 -148.91172 23.88093 -35.77898 -17.12111
-0.20871 -0.60317 0.40787 95.33741 -87.00165 -89.99304 -6.49202 6.90584 5.11302 37.99805 -9.2795 -0.83079 109.84939 3.21141 46.00435 110.91343 117.58716 -57.84304 -7.00951 115.63934 -1.19456 -42.0669 111.91261 -115.95149 -57.74131 6.78772 114.75664 -16.91968 24.37741 -148.91173 23.89144 35.80883 17.1883 107.94393 13.40524 -13.61023 -148.91171 23.87901 -35.77372 -17.10981
-0.20762 -0.60464 0.40808 95.03419 -87.13198 -89.9928 -6.23967 6.71304 4.97935 38.31418 -9.23079 -0.83079 110.11264 3.22438 46.15128 110.22647 116.66794 -57.25505 -6.84723 115.80799 -1.24686 -42.14804 110.94019 -115.63499 -57.52895 6.74941 114.34522 -17.45469 23.80818 -148.91173 23.89148 35.80884 17.18829 107.25683 13.52026 -12.74616 -148.91171 23.88088 -35.77882 -17.12116
-0.20571 -0.60675 0.40808 94.7213 -87.29452 -89.99251 -5.93587 6.49415 4.78461 38.71548 -9.18888 -0.83079 110.29516 3.37689 46.08186 109.62823 116.5168 -57.61773 -6.86481 116.0041 -1.32887 -42.10443 109.82642 -115.3499 -57.37377 6.72084 113.92527 -18.1368 23.22479 -148.91173 23.89158 35.80891 17.1883 106.49666 13.67873 -11.80986 -148.91172 23.88402 -35.78736 -17.14004
-0.20419 -0.60852 0.4082 94.41887 -87.43936 -89.99216 -5.66398 6.29468 4.62548 39.04817 -9.14517 -0.83079 110.51746 3.45578 46.11258 109.0078 115.99868 -57.51854 -6.7959 116.17555 -1.41949 -42.10328 108.79754 -115.12859 -57.31661 6.70281 113.51351 -18.73801 22.63792 -148.91173 23.89164 35.80895 17.1883 105.78629 13.7916 -10.90367 -148.91172 23.88646 -35.79402 -17.15482
-0.20259 -0.61048 0.40819 94.08931 -87.5979 -89.99188 -5.35044 6.06187 4.44007 39.51016 -9.0959 -0.83079 110.72981 3.56747 46.13903 108.30102 115.51857 -57.49917 -6.73981 116.39118 -1.42932 -42.1502 107.67758 -114.60388 -56.78395 6.62866 113.08495 -19.40003 22.09215 -148.91173 23.89172 35.809 17.18831 105.00675 14.01597 -10.00861 -148.91173 23.88938 -35.80195 -17.17234
-0.20096 -0.61221 0.40841 93.81423 -87.73488 -89.99155 -5.11304 5.89201 4.29232 39.72428 -9.05909 -0.83079 110.94192 3.64964 46.12026 107.79795 115.16198 -57.56734 -6.70336 116.52656 -1.60682 -42.07354 106.71587 -114.69904 -57.22168 6.66902 112.68942 -19.97059 21.46036 -148.91173 23.89179 35.80903 17.1883 104.3525 14.02005 -9.07489 -148.91173 23.89163 -35.80809 -17.186
-0.19958 -0.61308 0.40931 93.69585 -87.8091 -89.99113 -5.10553 5.91266 4.26228 39.20411 -9.06483 -0.83079 111.18105 3.59484 46.04691 107.84758 114.88534 -57.51471 -6.66695 116.40394 -2.27462 -41.66675 106.21758 -116.61366 -60.50888 7.04764 112.37961 -20.24273 20.56244 -148.91173 23.89181 35.80904 17.18829 104.07503 13.3744 -8.0335 -148.91173 23.8917 -35.80832 -17.18691
-0.19819 -0.61373 0.41044 93.63221 -87.85968 -89.99068 -5.17599 5.99594 4.27131 38.43677 -9.08127 -0.83079 111.42127 3.51056 45.93204 108.09801 114.72331 -57.54425 -6.647 116.20642 -3.10198 -41.14482 105.88494 -119.12579 -64.72941 7.53577 112.10438 -20.41957 19.58462 -148.91173 23.89182 35.80903 17.18827 103.92345 12.51098 -6.95942 -148.91173 23.89108 -35.80666 -17.18374
-0.19674 -0.61453 0.41145 93.54117 -87.91788 -89.99026 -5.20707 6.04415 4.2625 37.79996 -9.08639 -0.83079 111.65503 3.4551 45.82453 108.25092 114.56279 -57.62917 -6.62692 116.06249 -3.83278 -40.69001 105.48284 -121.28836 -68.40094 7.95725 111.81809 -20.64575 18.66341 -148.91173 23.89182 35.80901 17.18825 103.70625 11.76615 -5.91172 -148.91173 23.89081 -35.80596 -17.18263
-0.19552 -0.61512 0.41253 93.46026 -87.99007 -89.98977 -5.253 6.11939 4.25279 37.08674 -9.11861 -0.83079 111.90975 3.33974 45.75802 108.43522 114.20734 -57.36453 -6.58146 115.83429 -4.66788 -40.16892 105.05306 -123.78787 -72.61266 8.45107 111.51219 -20.85027 17.6539 -148.91173 23.89186 35.80906 17.18827 103.52346 10.93834 -4.811 -148.91173 23.89042 -35.80495 -17.1809
-0.19384 -0.6161 0.41351 93.37158 -88.02747 -89.98943 -5.28711 6.15344 4.25404 36.47617 -9.09733 -0.83079 112.12393 3.33975 45.59913 108.59815 114.26882 -57.82348 -6.59107 115.76672 -5.32126 -39.75933 104.71974 -125.71928 -75.90679 8.81926 111.25507 -21.07707 16.81218 -148.91173 23.89182 35.80896 17.18819 103.29802 10.23325 -3.81621 -148.91173 23.89009 -35.80408 -17.17939
-0.1909 -0.61822 0.41417 93.24668 -87.97133 -89.98951 -5.27042 6.05988 4.28398 36.17969 -8.922 -0.83079 112.2102 3.66989 45.19646 108.67614 115.50647 -60.35821 -6.7425 116.13095 -5.45162 -39.69349 104.63471 -126.00782 -76.56062 8.82173 111.12751 -21.37416 16.4314 -148.91173 23.89151 35.8084 17.18782 102.94039 9.90143 -3.10308 -148.91173 23.89006 -35.80402 -17.17942
-0.1875 -0.62075 0.41471 93.1126 -87.88151 -89.98973 -5.23907 5.92279 4.32225 35.99963 -8.69344 -0.83079 112.25862 4.11533 44.70368 108.72175 117.14605 -63.59497 -6.94872 116.66313 -5.39134 -39.74253 104.63831 -125.69539 -76.24315 8.69332 111.04737 -21.69951 16.22692 -148.91173 23.89112 35.80768 17.18737 102.53311 9.70413 -2.50198 -148.91173 23.8901 -35.80414 -17.17976
-0.18431 -0.62312 0.41529 92.98343 -87.80899 -89.98988 -5.21434 5.80449 4.35192 35.78607 -8.49126 -0.83079 112.33553 4.50488 44.25176 108.76552 118.56317 -66.44205 -7.13351 117.14027 -5.40485 -39.7353 104.58634 -125.60424 -76.28054 8.61844 110.94327 -22.01998 15.95552 -148.91173 23.89077 35.80706 17.18697 102.13781 9.45708 -1.86176 -148.91173 23.8901 -35.80417 -17.17994
-0.18112 -0.6254 0.41593 92.8522 -87.72697 -89.99008 -5.19322 5.69158 4.40381 35.48424 -8.27892 -0.83079 112.36626 4.90959 43.79633 108.88294 120.15299 -69.59254 -7.30577 117.53225 -5.47301 -39.74332 104.60152 -125.73211 -76.68519 8.5689 110.85014 -22.30123 15.62345 -148.91173 23.89038 35.80634 17.18651 101.7903 9.15349 -1.16884 -148.91173 23.89011 -35.8042 -17.18011
-0.17783 -0.62795 0.41641 92.72342 -87.65739 -89.99019 -5.15917 5.55751 4.41019 35.39433 -8.0766 -0.83079 112.48234 5.30878 43.33025 108.84081 121.47673 -72.27446 -7.51509 118.13328 -5.38649 -39.74562 104.49963 -125.27928 -76.12065 8.43862 110.74546 -22.67508 15.46331 -148.91173 23.89007 35.80579 17.18616 101.33136 9.0036 -0.61491 -148.91173 23.89013 -35.80427 -17.1804
-0.17435 -0.63117 0.41647 92.5944 -87.62764 -89.99007 -5.10089 5.36471 4.29493 35.88643 -7.90073 -0.83079 112.85933 5.67908 42.83243 108.32849 121.9673 -73.50656 -7.82862 119.35099 -4.86142 -39.7295 104.01849 -123.13832 -72.77361 8.07684 110.59289 -23.27085 15.7113 -148.91173 23.89002 35.80571 17.18613 100.56406 9.23646 -0.39928 -148.91173 23.89015 -35.80441 -17.18097
-0.17079 -0.63465 0.41636 92.46954 -87.61227 -89.98984 -5.02851 5.15373 4.13239 36.58439 -7.73933 -0.83079 113.32059 6.03735 42.33163 107.66241 122.17545 -74.23919 -8.17467 120.75955 -4.19626 -39.70028 103.42182 -120.47022 -68.53888 7.64466 110.42769 -23.96308 16.13005 -148.91173 23.89005 35.80582 17.18622 99.68872 9.62212 -0.32332 -148.91173 23.89018 -35.80458 -17.18165
-0.16729 -0.63801 0.41634 92.34866 -87.59218 -89.98963 -4.95668 4.95808 3.98716 37.17259 -7.58062 -0.83079 113.73275 6.39158 41.84863 107.09072 122.51245 -75.18982 -8.49558 122.02715 -3.63386 -39.65995 102.90001 -118.19708 -64.93811 7.27162 110.27096 -24.63079 16.48765 -148.91173 23.89006 35.80585 17.18627 98.86984 9.94465 -0.19538 -148.91173 23.89021 -35.80473 -17.18227
-0.16366 -0.64138 0.41629 92.20303 -87.563 -89.98955 -4.90802 4.73158 3.85934 37.83267 -7.38113 -0.83079 114.189 6.78959 41.29367 106.41581 122.86192 -76.20379 -8.86181 123.52573 -2.90415 -39.69236 102.28801 -115.26258 -60.35264 6.7823 110.10438 -25.22294 16.78584 -148.91173 23.89002 35.80583 17.18629 98.01569 10.24497 -0.02246 -148.91173 23.89024 -35.80489 -17.18294
-0.1603 -0.64478 0.41625 92.10963 -87.55688 -89.98918 -4.80931 4.56499 3.6846 38.39099 -7.27049 -0.83079 114.5742 7.09254 40.88825 105.91819 123.1125 -76.95702 -9.14107 124.5911 -2.48673 -39.57274 101.83401 -113.56899 -57.59244 6.51663 109.9547 -25.98864 17.24107 -148.91173 23.89009 35.80597 17.18639 97.21316 10.62629 0.02466 -148.91173 23.89026 -35.80505 -17.18354
